<svg xmlns="http://www.w3.org/2000/svg" class="svg" width="1008" height="675" style="display: block;">
<defs><style type="text/css"><![CDATA[
:root { overflow: hidden; }
.svg { background-color: rgb(255, 255, 255); }
.node text { font-size: 12px; font-family: Roboto, sans-serif; font-weight: normal; font-style: normal; fill: rgb(0, 0, 0); }
.node circle { fill: rgb(69, 113, 24); stroke: rgb(69, 113, 24); stroke-width: 1px; }
path { fill: none; stroke: rgb(144, 144, 144); stroke-width: 1px; }]]></style></defs>
    <g transform="translate(100,337.5) scale(1)"><path class="link" d="M200,0C100,0 100,0 0,0"/><path class="link" d="M400,0C300,0 300,0 200,0"/><path class="link" d="M600,-701.25C500,-701.25 500,0 400,0"/><path class="link" d="M600,-686.25C500,-686.25 500,0 400,0"/><path class="link" d="M600,-611.25C500,-611.25 500,0 400,0"/><path class="link" d="M600,-273.75C500,-273.75 500,0 400,0"/><path class="link" d="M600,-161.25C500,-161.25 500,0 400,0"/><path class="link" d="M600,-48.75C500,-48.75 500,0 400,0"/><path class="link" d="M600,63.75C500,63.75 500,0 400,0"/><path class="link" d="M600,176.25C500,176.25 500,0 400,0"/><path class="link" d="M600,191.25C500,191.25 500,0 400,0"/><path class="link" d="M600,206.25C500,206.25 500,0 400,0"/><path class="link" d="M600,221.25C500,221.25 500,0 400,0"/><path class="link" d="M600,236.25C500,236.25 500,0 400,0"/><path class="link" d="M600,251.25C500,251.25 500,0 400,0"/><path class="link" d="M600,266.25C500,266.25 500,0 400,0"/><path class="link" d="M600,281.25C500,281.25 500,0 400,0"/><path class="link" d="M600,296.25C500,296.25 500,0 400,0"/><path class="link" d="M600,311.25C500,311.25 500,0 400,0"/><path class="link" d="M600,326.25C500,326.25 500,0 400,0"/><path class="link" d="M600,341.25C500,341.25 500,0 400,0"/><path class="link" d="M600,356.25C500,356.25 500,0 400,0"/><path class="link" d="M600,371.25C500,371.25 500,0 400,0"/><path class="link" d="M600,386.25C500,386.25 500,0 400,0"/><path class="link" d="M600,401.25C500,401.25 500,0 400,0"/><path class="link" d="M600,416.25C500,416.25 500,0 400,0"/><path class="link" d="M600,431.25C500,431.25 500,0 400,0"/><path class="link" d="M600,446.25C500,446.25 500,0 400,0"/><path class="link" d="M600,461.25C500,461.25 500,0 400,0"/><path class="link" d="M600,476.25C500,476.25 500,0 400,0"/><path class="link" d="M600,491.25C500,491.25 500,0 400,0"/><path class="link" d="M600,506.25C500,506.25 500,0 400,0"/><path class="link" d="M600,521.25C500,521.25 500,0 400,0"/><path class="link" d="M600,536.25C500,536.25 500,0 400,0"/><path class="link" d="M600,551.25C500,551.25 500,0 400,0"/><path class="link" d="M600,566.25C500,566.25 500,0 400,0"/><path class="link" d="M600,581.25C500,581.25 500,0 400,0"/><path class="link" d="M600,596.25C500,596.25 500,0 400,0"/><path class="link" d="M600,611.25C500,611.25 500,0 400,0"/><path class="link" d="M600,626.25C500,626.25 500,0 400,0"/><path class="link" d="M600,641.25C500,641.25 500,0 400,0"/><path class="link" d="M600,656.25C500,656.25 500,0 400,0"/><path class="link" d="M600,671.25C500,671.25 500,0 400,0"/><path class="link" d="M600,686.25C500,686.25 500,0 400,0"/><path class="link" d="M600,701.25C500,701.25 500,0 400,0"/><path class="link" d="M800,-701.25C700,-701.25 700,-686.25 600,-686.25"/><path class="link" d="M800,-686.25C700,-686.25 700,-686.25 600,-686.25"/><path class="link" d="M800,-671.25C700,-671.25 700,-686.25 600,-686.25"/><path class="link" d="M800,-641.25C700,-641.25 700,-611.25 600,-611.25"/><path class="link" d="M800,-626.25C700,-626.25 700,-611.25 600,-611.25"/><path class="link" d="M800,-611.25C700,-611.25 700,-611.25 600,-611.25"/><path class="link" d="M800,-596.25C700,-596.25 700,-611.25 600,-611.25"/><path class="link" d="M800,-581.25C700,-581.25 700,-611.25 600,-611.25"/><path class="link" d="M800,-551.25C700,-551.25 700,-273.75 600,-273.75"/><path class="link" d="M800,-408.75C700,-408.75 700,-273.75 600,-273.75"/><path class="link" d="M800,-266.25C700,-266.25 700,-273.75 600,-273.75"/><path class="link" d="M800,-191.25000000000006C700,-191.25000000000006 700,-273.75 600,-273.75"/><path class="link" d="M800,-116.25C700,-116.25 700,-273.75 600,-273.75"/><path class="link" d="M800,-41.25C700,-41.25 700,-273.75 600,-273.75"/><path class="link" d="M800,-26.25C700,-26.25 700,-273.75 600,-273.75"/><path class="link" d="M800,-11.25C700,-11.25 700,-273.75 600,-273.75"/><path class="link" d="M800,3.75C700,3.75 700,-273.75 600,-273.75"/><path class="link" d="M800,33.75C700,33.75 700,176.25 600,176.25"/><path class="link" d="M800,48.75C700,48.75 700,176.25 600,176.25"/><path class="link" d="M800,63.75C700,63.75 700,176.25 600,176.25"/><path class="link" d="M800,78.75C700,78.75 700,176.25 600,176.25"/><path class="link" d="M800,93.75C700,93.75 700,176.25 600,176.25"/><path class="link" d="M800,108.75C700,108.75 700,176.25 600,176.25"/><path class="link" d="M800,123.75C700,123.75 700,176.25 600,176.25"/><path class="link" d="M800,138.75C700,138.75 700,176.25 600,176.25"/><path class="link" d="M800,153.75C700,153.75 700,176.25 600,176.25"/><path class="link" d="M800,168.75C700,168.75 700,176.25 600,176.25"/><path class="link" d="M800,183.75C700,183.75 700,176.25 600,176.25"/><path class="link" d="M800,198.75C700,198.75 700,176.25 600,176.25"/><path class="link" d="M800,213.75C700,213.75 700,176.25 600,176.25"/><path class="link" d="M800,228.75C700,228.75 700,176.25 600,176.25"/><path class="link" d="M800,243.75C700,243.75 700,176.25 600,176.25"/><path class="link" d="M800,258.75C700,258.75 700,176.25 600,176.25"/><path class="link" d="M800,273.75C700,273.75 700,176.25 600,176.25"/><path class="link" d="M800,288.75C700,288.75 700,176.25 600,176.25"/><path class="link" d="M800,303.75C700,303.75 700,176.25 600,176.25"/><path class="link" d="M800,318.75C700,318.75 700,176.25 600,176.25"/><path class="link" d="M1000,-776.2499999999999C900,-776.2499999999999 900,-551.25 800,-551.25"/><path class="link" d="M1000,-761.25C900,-761.25 900,-551.25 800,-551.25"/><path class="link" d="M1000,-746.25C900,-746.25 900,-551.25 800,-551.25"/><path class="link" d="M1000,-731.25C900,-731.25 900,-551.25 800,-551.25"/><path class="link" d="M1000,-716.25C900,-716.25 900,-551.25 800,-551.25"/><path class="link" d="M1000,-701.25C900,-701.25 900,-551.25 800,-551.25"/><path class="link" d="M1000,-686.25C900,-686.25 900,-551.25 800,-551.25"/><path class="link" d="M1000,-671.25C900,-671.25 900,-551.25 800,-551.25"/><path class="link" d="M1000,-656.25C900,-656.25 900,-551.25 800,-551.25"/><path class="link" d="M1000,-641.25C900,-641.25 900,-551.25 800,-551.25"/><path class="link" d="M1000,-626.25C900,-626.25 900,-551.25 800,-551.25"/><path class="link" d="M1000,-611.25C900,-611.25 900,-551.25 800,-551.25"/><path class="link" d="M1000,-596.25C900,-596.25 900,-551.25 800,-551.25"/><path class="link" d="M1000,-581.25C900,-581.25 900,-551.25 800,-551.25"/><path class="link" d="M1000,-566.25C900,-566.25 900,-551.25 800,-551.25"/><path class="link" d="M1000,-551.25C900,-551.25 900,-551.25 800,-551.25"/><path class="link" d="M1000,-536.25C900,-536.25 900,-551.25 800,-551.25"/><path class="link" d="M1000,-521.25C900,-521.25 900,-551.25 800,-551.25"/><path class="link" d="M1000,-506.25C900,-506.25 900,-551.25 800,-551.25"/><path class="link" d="M1000,-491.25000000000006C900,-491.25000000000006 900,-551.25 800,-551.25"/><path class="link" d="M1000,-476.25000000000006C900,-476.25000000000006 900,-551.25 800,-551.25"/><path class="link" d="M1000,-461.25000000000006C900,-461.25000000000006 900,-551.25 800,-551.25"/><path class="link" d="M1000,-446.25000000000006C900,-446.25000000000006 900,-551.25 800,-551.25"/><path class="link" d="M1000,-431.25C900,-431.25 900,-551.25 800,-551.25"/><path class="link" d="M1000,-416.25C900,-416.25 900,-551.25 800,-551.25"/><path class="link" d="M1000,-401.25C900,-401.25 900,-551.25 800,-551.25"/><path class="link" d="M1000,-386.25C900,-386.25 900,-551.25 800,-551.25"/><path class="link" d="M1000,-371.25C900,-371.25 900,-551.25 800,-551.25"/><path class="link" d="M1000,-356.24999999999994C900,-356.24999999999994 900,-551.25 800,-551.25"/><path class="link" d="M1000,-341.24999999999994C900,-341.24999999999994 900,-551.25 800,-551.25"/><path class="link" d="M1000,-326.24999999999994C900,-326.24999999999994 900,-551.25 800,-551.25"/><path class="link" d="M1000,-296.25C900,-296.25 900,-266.25 800,-266.25"/><path class="link" d="M1000,-281.25C900,-281.25 900,-266.25 800,-266.25"/><path class="link" d="M1000,-266.25C900,-266.25 900,-266.25 800,-266.25"/><path class="link" d="M1000,-251.25C900,-251.25 900,-266.25 800,-266.25"/><path class="link" d="M1000,-236.25C900,-236.25 900,-266.25 800,-266.25"/><path class="link" d="M1000,-206.25000000000006C900,-206.25000000000006 900,-191.25000000000006 800,-191.25000000000006"/><path class="link" d="M1000,-191.25000000000006C900,-191.25000000000006 900,-191.25000000000006 800,-191.25000000000006"/><path class="link" d="M1000,-176.25000000000006C900,-176.25000000000006 900,-191.25000000000006 800,-191.25000000000006"/><path class="link" d="M1000,-146.25C900,-146.25 900,-116.25 800,-116.25"/><path class="link" d="M1000,-131.25C900,-131.25 900,-116.25 800,-116.25"/><path class="link" d="M1000,-116.25C900,-116.25 900,-116.25 800,-116.25"/><path class="link" d="M1000,-101.25C900,-101.25 900,-116.25 800,-116.25"/><path class="link" d="M1000,-86.25C900,-86.25 900,-116.25 800,-116.25"/><path class="link" d="M1000,-56.25C900,-56.25 900,-41.25 800,-41.25"/><path class="link" d="M1000,-41.25C900,-41.25 900,-41.25 800,-41.25"/><path class="link" d="M1000,-26.25C900,-26.25 900,-41.25 800,-41.25"/><path class="link" d="M1000,3.75C900,3.75 900,3.75 800,3.75"/><g class="node" transform="translate(0, 0)"><circle r="4.5" cursor="pointer" style="fill: rgb(69, 113, 24); stroke: rgb(69, 113, 24);"/><text dy=".35em" x="-13" text-anchor="end" style="fill-opacity: 1;">/</text></g><g class="node" transform="translate(200, 0)"><circle r="4.5" cursor="pointer" style="fill: rgb(69, 113, 24); stroke: rgb(69, 113, 24);"/><text dy=".35em" x="-13" text-anchor="end" style="fill-opacity: 1;">https/</text></g><g class="node" transform="translate(400, 0)"><circle r="4.5" cursor="pointer" style="fill: rgb(69, 113, 24); stroke: rgb(69, 113, 24);"/><text dy=".35em" x="-13" text-anchor="end" style="fill-opacity: 1;">www.bushnellgolf.com/</text></g><g class="node" transform="translate(600, -701.25)"><circle r="4.5" cursor="pointer" style="fill: rgb(201, 45, 45); stroke: rgb(201, 45, 45);"/><text dy=".35em" x="13" text-anchor="start" style="fill-opacity: 1;">tour-v5</text></g><g class="node" transform="translate(600, -686.25)"><circle r="4.5" cursor="pointer" style="fill: rgb(69, 113, 24); stroke: rgb(69, 113, 24);"/><text dy=".35em" x="-13" text-anchor="end" style="fill-opacity: 1;">launch-monitors/</text></g><g class="node" transform="translate(600, -611.25)"><circle r="4.5" cursor="pointer" style="fill: rgb(69, 113, 24); stroke: rgb(69, 113, 24);"/><text dy=".35em" x="-13" text-anchor="end" style="fill-opacity: 1;">launch-pro/</text></g><g class="node" transform="translate(600, -273.75)"><circle r="4.5" cursor="pointer" style="fill: rgb(69, 113, 24); stroke: rgb(69, 113, 24);"/><text dy=".35em" x="-13" text-anchor="end" style="fill-opacity: 1;">products/</text></g><g class="node" transform="translate(600, -161.25)"><circle r="4.5" cursor="pointer" style="fill: rgb(201, 45, 45); stroke: rgb(201, 45, 45);"/><text dy=".35em" x="13" text-anchor="start" style="fill-opacity: 1;">ion-elite-link</text></g><g class="node" transform="translate(600, -48.75)"><circle r="4.5" cursor="pointer" style="fill: rgb(201, 45, 45); stroke: rgb(201, 45, 45);"/><text dy=".35em" x="13" text-anchor="start" style="fill-opacity: 1;">tour-v5-shift-link/</text></g><g class="node" transform="translate(600, 63.75)"><circle r="4.5" cursor="pointer" style="fill: rgb(69, 113, 24); stroke: rgb(69, 113, 24);"/><text dy=".35em" x="13" text-anchor="start" style="fill-opacity: 1;">shipping-delivery/</text></g><g class="node" transform="translate(600, 176.25)"><circle r="4.5" cursor="pointer" style="fill: rgb(201, 45, 45); stroke: rgb(201, 45, 45);"/><text dy=".35em" x="-13" text-anchor="end" style="fill-opacity: 1;">support/</text></g><g class="node" transform="translate(600, 191.25)"><circle r="4.5" cursor="pointer" style="fill: rgb(201, 45, 45); stroke: rgb(201, 45, 45);"/><text dy=".35em" x="13" text-anchor="start" style="fill-opacity: 1;">launch-monitors/?_bc_fsnf=1&amp;in_stock=1</text></g><g class="node" transform="translate(600, 206.25)"><circle r="4.5" cursor="pointer" style="fill: rgb(69, 113, 24); stroke: rgb(69, 113, 24);"/><text dy=".35em" x="13" text-anchor="start" style="fill-opacity: 1;">login.php?action=reset_password</text></g><g class="node" transform="translate(600, 221.25)"><circle r="4.5" cursor="pointer" style="fill: rgb(201, 45, 45); stroke: rgb(201, 45, 45);"/><text dy=".35em" x="13" text-anchor="start" style="fill-opacity: 1;">returns/</text></g><g class="node" transform="translate(600, 236.25)"><circle r="4.5" cursor="pointer" style="fill: rgb(69, 113, 24); stroke: rgb(69, 113, 24);"/><text dy=".35em" x="13" text-anchor="start" style="fill-opacity: 1;">buy-direct/</text></g><g class="node" transform="translate(600, 251.25)"><circle r="4.5" cursor="pointer" style="fill: rgb(69, 113, 24); stroke: rgb(69, 113, 24);"/><text dy=".35em" x="13" text-anchor="start" style="fill-opacity: 1;">wingman</text></g><g class="node" transform="translate(600, 266.25)"><circle r="4.5" cursor="pointer" style="fill: rgb(201, 45, 45); stroke: rgb(201, 45, 45);"/><text dy=".35em" x="13" text-anchor="start" style="fill-opacity: 1;">giftcertificates.php</text></g><g class="node" transform="translate(600, 281.25)"><circle r="4.5" cursor="pointer" style="fill: rgb(69, 113, 24); stroke: rgb(69, 113, 24);"/><text dy=".35em" x="13" text-anchor="start" style="fill-opacity: 1;">videos/</text></g><g class="node" transform="translate(600, 296.25)"><circle r="4.5" cursor="pointer" style="fill: rgb(69, 113, 24); stroke: rgb(69, 113, 24);"/><text dy=".35em" x="13" text-anchor="start" style="fill-opacity: 1;">contact/</text></g><g class="node" transform="translate(600, 311.25)"><circle r="4.5" cursor="pointer" style="fill: rgb(69, 113, 24); stroke: rgb(69, 113, 24);"/><text dy=".35em" x="13" text-anchor="start" style="fill-opacity: 1;">returns</text></g><g class="node" transform="translate(600, 326.25)"><circle r="4.5" cursor="pointer" style="fill: rgb(201, 45, 45); stroke: rgb(201, 45, 45);"/><text dy=".35em" x="13" text-anchor="start" style="fill-opacity: 1;">golf-laser-rangefinders/?_bc_fsnf=1</text></g><g class="node" transform="translate(600, 341.25)"><circle r="4.5" cursor="pointer" style="fill: rgb(201, 45, 45); stroke: rgb(201, 45, 45);"/><text dy=".35em" x="13" text-anchor="start" style="fill-opacity: 1;">how-do-i-make-a-return/</text></g><g class="node" transform="translate(600, 356.25)"><circle r="4.5" cursor="pointer" style="fill: rgb(69, 113, 24); stroke: rgb(69, 113, 24);"/><text dy=".35em" x="13" text-anchor="start" style="fill-opacity: 1;">golf-laser-rangefinders/</text></g><g class="node" transform="translate(600, 371.25)"><circle r="4.5" cursor="pointer" style="fill: rgb(201, 45, 45); stroke: rgb(201, 45, 45);"/><text dy=".35em" x="13" text-anchor="start" style="fill-opacity: 1;">pro-xe-link/</text></g><g class="node" transform="translate(600, 386.25)"><circle r="4.5" cursor="pointer" style="fill: rgb(201, 45, 45); stroke: rgb(201, 45, 45);"/><text dy=".35em" x="13" text-anchor="start" style="fill-opacity: 1;">golf-laser-rangefinders/?_bc_fsnf=1&amp;in_stock=1</text></g><g class="node" transform="translate(600, 401.25)"><circle r="4.5" cursor="pointer" style="fill: rgb(69, 113, 24); stroke: rgb(69, 113, 24);"/><text dy=".35em" x="13" text-anchor="start" style="fill-opacity: 1;">login.php</text></g><g class="node" transform="translate(600, 416.25)"><circle r="4.5" cursor="pointer" style="fill: rgb(201, 45, 45); stroke: rgb(201, 45, 45);"/><text dy=".35em" x="13" text-anchor="start" style="fill-opacity: 1;">bushnellgolf-com-returns/</text></g><g class="node" transform="translate(600, 431.25)"><circle r="4.5" cursor="pointer" style="fill: rgb(69, 113, 24); stroke: rgb(69, 113, 24);"/><text dy=".35em" x="13" text-anchor="start" style="fill-opacity: 1;">compare</text></g><g class="node" transform="translate(600, 446.25)"><circle r="4.5" cursor="pointer" style="fill: rgb(201, 45, 45); stroke: rgb(201, 45, 45);"/><text dy=".35em" x="13" text-anchor="start" style="fill-opacity: 1;">tour-v5-shift</text></g><g class="node" transform="translate(600, 461.25)"><circle r="4.5" cursor="pointer" style="fill: rgb(201, 45, 45); stroke: rgb(201, 45, 45);"/><text dy=".35em" x="13" text-anchor="start" style="fill-opacity: 1;">sale/?_bc_fsnf=1</text></g><g class="node" transform="translate(600, 476.25)"><circle r="4.5" cursor="pointer" style="fill: rgb(69, 113, 24); stroke: rgb(69, 113, 24);"/><text dy=".35em" x="13" text-anchor="start" style="fill-opacity: 1;">product-registration/</text></g><g class="node" transform="translate(600, 491.25)"><circle r="4.5" cursor="pointer" style="fill: rgb(201, 45, 45); stroke: rgb(201, 45, 45);"/><text dy=".35em" x="13" text-anchor="start" style="fill-opacity: 1;">sale/?_bc_fsnf=1&amp;in_stock=1</text></g><g class="node" transform="translate(600, 506.25)"><circle r="4.5" cursor="pointer" style="fill: rgb(69, 113, 24); stroke: rgb(69, 113, 24);"/><text dy=".35em" x="13" text-anchor="start" style="fill-opacity: 1;">domination/</text></g><g class="node" transform="translate(600, 521.25)"><circle r="4.5" cursor="pointer" style="fill: rgb(201, 45, 45); stroke: rgb(201, 45, 45);"/><text dy=".35em" x="13" text-anchor="start" style="fill-opacity: 1;">phantom-2-link/</text></g><g class="node" transform="translate(600, 536.25)"><circle r="4.5" cursor="pointer" style="fill: rgb(201, 45, 45); stroke: rgb(201, 45, 45);"/><text dy=".35em" x="13" text-anchor="start" style="fill-opacity: 1;">videos</text></g><g class="node" transform="translate(600, 551.25)"><circle r="4.5" cursor="pointer" style="fill: rgb(201, 45, 45); stroke: rgb(201, 45, 45);"/><text dy=".35em" x="13" text-anchor="start" style="fill-opacity: 1;">pro-x3-link/</text></g><g class="node" transform="translate(600, 566.25)"><circle r="4.5" cursor="pointer" style="fill: rgb(69, 113, 24); stroke: rgb(69, 113, 24);"/><text dy=".35em" x="13" text-anchor="start" style="fill-opacity: 1;">sale/</text></g><g class="node" transform="translate(600, 581.25)"><circle r="4.5" cursor="pointer" style="fill: rgb(201, 45, 45); stroke: rgb(201, 45, 45);"/><text dy=".35em" x="13" text-anchor="start" style="fill-opacity: 1;">pro-xe</text></g><g class="node" transform="translate(600, 596.25)"><circle r="4.5" cursor="pointer" style="fill: rgb(201, 45, 45); stroke: rgb(201, 45, 45);"/><text dy=".35em" x="13" text-anchor="start" style="fill-opacity: 1;">launch-monitors/?_bc_fsnf=1</text></g><g class="node" transform="translate(600, 611.25)"><circle r="4.5" cursor="pointer" style="fill: rgb(69, 113, 24); stroke: rgb(69, 113, 24);"/><text dy=".35em" x="13" text-anchor="start" style="fill-opacity: 1;">cart.php</text></g><g class="node" transform="translate(600, 626.25)"><circle r="4.5" cursor="pointer" style="fill: rgb(201, 45, 45); stroke: rgb(201, 45, 45);"/><text dy=".35em" x="13" text-anchor="start" style="fill-opacity: 1;">tour-v5-link/</text></g><g class="node" transform="translate(600, 641.25)"><circle r="4.5" cursor="pointer" style="fill: rgb(69, 113, 24); stroke: rgb(69, 113, 24);"/><text dy=".35em" x="13" text-anchor="start" style="fill-opacity: 1;">about-bushnell-golf/</text></g><g class="node" transform="translate(600, 656.25)"><circle r="4.5" cursor="pointer" style="fill: rgb(201, 45, 45); stroke: rgb(201, 45, 45);"/><text dy=".35em" x="13" text-anchor="start" style="fill-opacity: 1;">tour-v5-shift/</text></g><g class="node" transform="translate(600, 671.25)"><circle r="4.5" cursor="pointer" style="fill: rgb(69, 113, 24); stroke: rgb(69, 113, 24);"/><text dy=".35em" x="13" text-anchor="start" style="fill-opacity: 1;">login.php?action=create_account</text></g><g class="node" transform="translate(600, 686.25)"><circle r="4.5" cursor="pointer" style="fill: rgb(69, 113, 24); stroke: rgb(69, 113, 24);"/><text dy=".35em" x="13" text-anchor="start" style="fill-opacity: 1;">affiliate-program/</text></g><g class="node" transform="translate(600, 701.25)"><circle r="4.5" cursor="pointer" style="fill: rgb(69, 113, 24); stroke: rgb(69, 113, 24);"/><text dy=".35em" x="13" text-anchor="start" style="fill-opacity: 1;">support</text></g><g class="node" transform="translate(800, -701.25)"><circle r="4.5" cursor="pointer" style="fill: rgb(201, 45, 45); stroke: rgb(201, 45, 45);"/><text dy=".35em" x="13" text-anchor="start" style="fill-opacity: 1;">launch-pro-net-package/</text></g><g class="node" transform="translate(800, -686.25)"><circle r="4.5" cursor="pointer" style="fill: rgb(201, 45, 45); stroke: rgb(201, 45, 45);"/><text dy=".35em" x="13" text-anchor="start" style="fill-opacity: 1;">launch-pro-full-simulator-package/</text></g><g class="node" transform="translate(800, -671.25)"><circle r="4.5" cursor="pointer" style="fill: rgb(201, 45, 45); stroke: rgb(201, 45, 45);"/><text dy=".35em" x="13" text-anchor="start" style="fill-opacity: 1;">launch-pro/</text></g><g class="node" transform="translate(800, -641.25)"><circle r="4.5" cursor="pointer" style="fill: rgb(69, 113, 24); stroke: rgb(69, 113, 24);"/><text dy=".35em" x="13" text-anchor="start" style="fill-opacity: 1;">buyers-guide</text></g><g class="node" transform="translate(800, -626.25)"><circle r="4.5" cursor="pointer" style="fill: rgb(69, 113, 24); stroke: rgb(69, 113, 24);"/><text dy=".35em" x="13" text-anchor="start" style="fill-opacity: 1;">how-to-purchase-software-packages</text></g><g class="node" transform="translate(800, -611.25)"><circle r="4.5" cursor="pointer" style="fill: rgb(69, 113, 24); stroke: rgb(69, 113, 24);"/><text dy=".35em" x="13" text-anchor="start" style="fill-opacity: 1;">top-teaching-pro-testimonials</text></g><g class="node" transform="translate(800, -596.25)"><circle r="4.5" cursor="pointer" style="fill: rgb(69, 113, 24); stroke: rgb(69, 113, 24);"/><text dy=".35em" x="13" text-anchor="start" style="fill-opacity: 1;">what-we-measure</text></g><g class="node" transform="translate(800, -581.25)"><circle r="4.5" cursor="pointer" style="fill: rgb(69, 113, 24); stroke: rgb(69, 113, 24);"/><text dy=".35em" x="13" text-anchor="start" style="fill-opacity: 1;">compare-launch-pro-software-packages</text></g><g class="node" transform="translate(800, -551.25)"><circle r="4.5" cursor="pointer" style="fill: rgb(69, 113, 24); stroke: rgb(69, 113, 24);"/><text dy=".35em" x="-13" text-anchor="end" style="fill-opacity: 1;">parts/</text></g><g class="node" transform="translate(800, -408.75)"><circle r="4.5" cursor="pointer" style="fill: rgb(201, 45, 45); stroke: rgb(201, 45, 45);"/><text dy=".35em" x="13" text-anchor="start" style="fill-opacity: 1;">parts-accessories/</text></g><g class="node" transform="translate(800, -266.25)"><circle r="4.5" cursor="pointer" style="fill: rgb(69, 113, 24); stroke: rgb(69, 113, 24);"/><text dy=".35em" x="-13" text-anchor="end" style="fill-opacity: 1;">gps/</text></g><g class="node" transform="translate(800, -191.25)"><circle r="4.5" cursor="pointer" style="fill: rgb(69, 113, 24); stroke: rgb(69, 113, 24);"/><text dy=".35em" x="-13" text-anchor="end" style="fill-opacity: 1;">accessories/</text></g><g class="node" transform="translate(800, -116.25)"><circle r="4.5" cursor="pointer" style="fill: rgb(201, 45, 45); stroke: rgb(201, 45, 45);"/><text dy=".35em" x="-13" text-anchor="end" style="fill-opacity: 1;">laser-rangefinders/</text></g><g class="node" transform="translate(800, -41.25)"><circle r="4.5" cursor="pointer" style="fill: rgb(201, 45, 45); stroke: rgb(201, 45, 45);"/><text dy=".35em" x="-13" text-anchor="end" style="fill-opacity: 1;">launch-monitors/</text></g><g class="node" transform="translate(800, -26.25)"><circle r="4.5" cursor="pointer" style="fill: rgb(201, 45, 45); stroke: rgb(201, 45, 45);"/><text dy=".35em" x="13" text-anchor="start" style="fill-opacity: 1;">accessories/?_bc_fsnf=1</text></g><g class="node" transform="translate(800, -11.25)"><circle r="4.5" cursor="pointer" style="fill: rgb(201, 45, 45); stroke: rgb(201, 45, 45);"/><text dy=".35em" x="13" text-anchor="start" style="fill-opacity: 1;">accessories/?_bc_fsnf=1&amp;in_stock=1</text></g><g class="node" transform="translate(800, 3.75)"><circle r="4.5" cursor="pointer" style="fill: rgb(69, 113, 24); stroke: rgb(69, 113, 24);"/><text dy=".35em" x="-13" text-anchor="end" style="fill-opacity: 1;">gps-watches/</text></g><g class="node" transform="translate(800, 33.75)"><circle r="4.5" cursor="pointer" style="fill: rgb(69, 113, 24); stroke: rgb(69, 113, 24);"/><text dy=".35em" x="13" text-anchor="start" style="fill-opacity: 1;">product-plm-launch-pro</text></g><g class="node" transform="translate(800, 48.75)"><circle r="4.5" cursor="pointer" style="fill: rgb(69, 113, 24); stroke: rgb(69, 113, 24);"/><text dy=".35em" x="13" text-anchor="start" style="fill-opacity: 1;">product-gps-phantom</text></g><g class="node" transform="translate(800, 63.75)"><circle r="4.5" cursor="pointer" style="fill: rgb(69, 113, 24); stroke: rgb(69, 113, 24);"/><text dy=".35em" x="13" text-anchor="start" style="fill-opacity: 1;">wingman</text></g><g class="node" transform="translate(800, 78.75)"><circle r="4.5" cursor="pointer" style="fill: rgb(69, 113, 24); stroke: rgb(69, 113, 24);"/><text dy=".35em" x="13" text-anchor="start" style="fill-opacity: 1;">product-lrf-tour-v4</text></g><g class="node" transform="translate(800, 93.75)"><circle r="4.5" cursor="pointer" style="fill: rgb(69, 113, 24); stroke: rgb(69, 113, 24);"/><text dy=".35em" x="13" text-anchor="start" style="fill-opacity: 1;">product-lrf-tour-v5</text></g><g class="node" transform="translate(800, 108.75)"><circle r="4.5" cursor="pointer" style="fill: rgb(69, 113, 24); stroke: rgb(69, 113, 24);"/><text dy=".35em" x="13" text-anchor="start" style="fill-opacity: 1;">product-gps-ion2</text></g><g class="node" transform="translate(800, 123.75)"><circle r="4.5" cursor="pointer" style="fill: rgb(69, 113, 24); stroke: rgb(69, 113, 24);"/><text dy=".35em" x="13" text-anchor="start" style="fill-opacity: 1;">product-gps-ion</text></g><g class="node" transform="translate(800, 138.75)"><circle r="4.5" cursor="pointer" style="fill: rgb(69, 113, 24); stroke: rgb(69, 113, 24);"/><text dy=".35em" x="13" text-anchor="start" style="fill-opacity: 1;">product-gps-phantom-2</text></g><g class="node" transform="translate(800, 153.75)"><circle r="4.5" cursor="pointer" style="fill: rgb(69, 113, 24); stroke: rgb(69, 113, 24);"/><text dy=".35em" x="13" text-anchor="start" style="fill-opacity: 1;">search-available-gps-course-maps</text></g><g class="node" transform="translate(800, 168.75)"><circle r="4.5" cursor="pointer" style="fill: rgb(69, 113, 24); stroke: rgb(69, 113, 24);"/><text dy=".35em" x="13" text-anchor="start" style="fill-opacity: 1;">product-lrf-l7</text></g><g class="node" transform="translate(800, 183.75)"><circle r="4.5" cursor="pointer" style="fill: rgb(69, 113, 24); stroke: rgb(69, 113, 24);"/><text dy=".35em" x="13" text-anchor="start" style="fill-opacity: 1;">product-gps-excel</text></g><g class="node" transform="translate(800, 198.75)"><circle r="4.5" cursor="pointer" style="fill: rgb(69, 113, 24); stroke: rgb(69, 113, 24);"/><text dy=".35em" x="13" text-anchor="start" style="fill-opacity: 1;">product-gps-ion-edge</text></g><g class="node" transform="translate(800, 213.75)"><circle r="4.5" cursor="pointer" style="fill: rgb(69, 113, 24); stroke: rgb(69, 113, 24);"/><text dy=".35em" x="13" text-anchor="start" style="fill-opacity: 1;">product-lrf-hybrid</text></g><g class="node" transform="translate(800, 228.75)"><circle r="4.5" cursor="pointer" style="fill: rgb(69, 113, 24); stroke: rgb(69, 113, 24);"/><text dy=".35em" x="13" text-anchor="start" style="fill-opacity: 1;">product-lrf-tour-v5-shift</text></g><g class="node" transform="translate(800, 243.75)"><circle r="4.5" cursor="pointer" style="fill: rgb(201, 45, 45); stroke: rgb(201, 45, 45);"/><text dy=".35em" x="13" text-anchor="start" style="fill-opacity: 1;">product-gps-neo-ion</text></g><g class="node" transform="translate(800, 258.75)"><circle r="4.5" cursor="pointer" style="fill: rgb(69, 113, 24); stroke: rgb(69, 113, 24);"/><text dy=".35em" x="13" text-anchor="start" style="fill-opacity: 1;">product-lrf-pro-xe</text></g><g class="node" transform="translate(800, 273.75)"><circle r="4.5" cursor="pointer" style="fill: rgb(69, 113, 24); stroke: rgb(69, 113, 24);"/><text dy=".35em" x="13" text-anchor="start" style="fill-opacity: 1;">choose-device-and-legacy-product-manuals</text></g><g class="node" transform="translate(800, 288.75)"><circle r="4.5" cursor="pointer" style="fill: rgb(69, 113, 24); stroke: rgb(69, 113, 24);"/><text dy=".35em" x="13" text-anchor="start" style="fill-opacity: 1;">request-course-map</text></g><g class="node" transform="translate(800, 303.75)"><circle r="4.5" cursor="pointer" style="fill: rgb(69, 113, 24); stroke: rgb(69, 113, 24);"/><text dy=".35em" x="13" text-anchor="start" style="fill-opacity: 1;">product-lrf-tour-v4-shift</text></g><g class="node" transform="translate(800, 318.75)"><circle r="4.5" cursor="pointer" style="fill: rgb(69, 113, 24); stroke: rgb(69, 113, 24);"/><text dy=".35em" x="13" text-anchor="start" style="fill-opacity: 1;">product-lrf-pro-x2</text></g><g class="node" transform="translate(1000, -776.25)"><circle r="4.5" cursor="pointer" style="fill: rgb(69, 113, 24); stroke: rgb(69, 113, 24);"/><text dy=".35em" x="13" text-anchor="start" style="fill-opacity: 1;">watchband-screwdriver-for-excel-ion-and-ion2/</text></g><g class="node" transform="translate(1000, -761.25)"><circle r="4.5" cursor="pointer" style="fill: rgb(69, 113, 24); stroke: rgb(69, 113, 24);"/><text dy=".35em" x="13" text-anchor="start" style="fill-opacity: 1;">replacement-watchband-for-excel-gps/</text></g><g class="node" transform="translate(1000, -746.25)"><circle r="4.5" cursor="pointer" style="fill: rgb(69, 113, 24); stroke: rgb(69, 113, 24);"/><text dy=".35em" x="13" text-anchor="start" style="fill-opacity: 1;">replacement-remote-wingman-speaker/</text></g><g class="node" transform="translate(1000, -731.25)"><circle r="4.5" cursor="pointer" style="fill: rgb(69, 113, 24); stroke: rgb(69, 113, 24);"/><text dy=".35em" x="13" text-anchor="start" style="fill-opacity: 1;">replacement-eye-cup-for-tour-v4-tour-v4-shift-or-hybrid/</text></g><g class="node" transform="translate(1000, -716.25)"><circle r="4.5" cursor="pointer" style="fill: rgb(69, 113, 24); stroke: rgb(69, 113, 24);"/><text dy=".35em" x="13" text-anchor="start" style="fill-opacity: 1;">belt-clip-for-phantom-2-gps</text></g><g class="node" transform="translate(1000, -701.25)"><circle r="4.5" cursor="pointer" style="fill: rgb(69, 113, 24); stroke: rgb(69, 113, 24);"/><text dy=".35em" x="13" text-anchor="start" style="fill-opacity: 1;">replacement-watchband-for-ion-edge/</text></g><g class="node" transform="translate(1000, -686.25)"><circle r="4.5" cursor="pointer" style="fill: rgb(69, 113, 24); stroke: rgb(69, 113, 24);"/><text dy=".35em" x="13" text-anchor="start" style="fill-opacity: 1;">replacement-charging-cable-for-phantom-2-gps/</text></g><g class="node" transform="translate(1000, -671.25)"><circle r="4.5" cursor="pointer" style="fill: rgb(69, 113, 24); stroke: rgb(69, 113, 24);"/><text dy=".35em" x="13" text-anchor="start" style="fill-opacity: 1;">replacement-USB-C-Cable-for-Launch-Pro</text></g><g class="node" transform="translate(1000, -656.25)"><circle r="4.5" cursor="pointer" style="fill: rgb(69, 113, 24); stroke: rgb(69, 113, 24);"/><text dy=".35em" x="13" text-anchor="start" style="fill-opacity: 1;">replacement-eye-cup-for-pro-x2/</text></g><g class="node" transform="translate(1000, -641.25)"><circle r="4.5" cursor="pointer" style="fill: rgb(69, 113, 24); stroke: rgb(69, 113, 24);"/><text dy=".35em" x="13" text-anchor="start" style="fill-opacity: 1;">replacement-battery-cap-for-pro-x2/</text></g><g class="node" transform="translate(1000, -626.25)"><circle r="4.5" cursor="pointer" style="fill: rgb(69, 113, 24); stroke: rgb(69, 113, 24);"/><text dy=".35em" x="13" text-anchor="start" style="fill-opacity: 1;">replacement-battery-cap-for-tour-v5-or-tour-v5-shift/</text></g><g class="node" transform="translate(1000, -611.25)"><circle r="4.5" cursor="pointer" style="fill: rgb(69, 113, 24); stroke: rgb(69, 113, 24);"/><text dy=".35em" x="13" text-anchor="start" style="fill-opacity: 1;">Club-Markers-for-Launch-Pro</text></g><g class="node" transform="translate(1000, -596.25)"><circle r="4.5" cursor="pointer" style="fill: rgb(69, 113, 24); stroke: rgb(69, 113, 24);"/><text dy=".35em" x="13" text-anchor="start" style="fill-opacity: 1;">replacement-eye-cup-for-pro-xe/</text></g><g class="node" transform="translate(1000, -581.25)"><circle r="4.5" cursor="pointer" style="fill: rgb(69, 113, 24); stroke: rgb(69, 113, 24);"/><text dy=".35em" x="13" text-anchor="start" style="fill-opacity: 1;">belt-clip-for-neo-ghost-gps/</text></g><g class="node" transform="translate(1000, -566.25)"><circle r="4.5" cursor="pointer" style="fill: rgb(69, 113, 24); stroke: rgb(69, 113, 24);"/><text dy=".35em" x="13" text-anchor="start" style="fill-opacity: 1;">replacement-battery-cap-for-pro-xe/</text></g><g class="node" transform="translate(1000, -551.25)"><circle r="4.5" cursor="pointer" style="fill: rgb(69, 113, 24); stroke: rgb(69, 113, 24);"/><text dy=".35em" x="13" text-anchor="start" style="fill-opacity: 1;">replacement-watchband-for-ion2-gps/</text></g><g class="node" transform="translate(1000, -536.25)"><circle r="4.5" cursor="pointer" style="fill: rgb(69, 113, 24); stroke: rgb(69, 113, 24);"/><text dy=".35em" x="13" text-anchor="start" style="fill-opacity: 1;">replacement-battery-cap-for-tour-v3-or-tour-v3-slope/</text></g><g class="node" transform="translate(1000, -521.25)"><circle r="4.5" cursor="pointer" style="fill: rgb(69, 113, 24); stroke: rgb(69, 113, 24);"/><text dy=".35em" x="13" text-anchor="start" style="fill-opacity: 1;">replacement-charger-for-Neo-iON-iON2-Excel-GPS-watch</text></g><g class="node" transform="translate(1000, -506.25)"><circle r="4.5" cursor="pointer" style="fill: rgb(69, 113, 24); stroke: rgb(69, 113, 24);"/><text dy=".35em" x="13" text-anchor="start" style="fill-opacity: 1;">replacement-eye-cup-for-tour-z6/</text></g><g class="node" transform="translate(1000, -491.25)"><circle r="4.5" cursor="pointer" style="fill: rgb(69, 113, 24); stroke: rgb(69, 113, 24);"/><text dy=".35em" x="13" text-anchor="start" style="fill-opacity: 1;">magnetic-belt-clip-for-phantom-gps/</text></g><g class="node" transform="translate(1000, -476.25)"><circle r="4.5" cursor="pointer" style="fill: rgb(69, 113, 24); stroke: rgb(69, 113, 24);"/><text dy=".35em" x="13" text-anchor="start" style="fill-opacity: 1;">replacement-eye-cup-for-pro-x7-or-pro-1m/</text></g><g class="node" transform="translate(1000, -461.25)"><circle r="4.5" cursor="pointer" style="fill: rgb(69, 113, 24); stroke: rgb(69, 113, 24);"/><text dy=".35em" x="13" text-anchor="start" style="fill-opacity: 1;">replacement-battery-cap-for-tour-z6/</text></g><g class="node" transform="translate(1000, -446.25)"><circle r="4.5" cursor="pointer" style="fill: rgb(69, 113, 24); stroke: rgb(69, 113, 24);"/><text dy=".35em" x="13" text-anchor="start" style="fill-opacity: 1;">carrying-case-pro-xe-tour-v5-shift/</text></g><g class="node" transform="translate(1000, -431.25)"><circle r="4.5" cursor="pointer" style="fill: rgb(69, 113, 24); stroke: rgb(69, 113, 24);"/><text dy=".35em" x="13" text-anchor="start" style="fill-opacity: 1;">replacement-watchband-for-neo-ion-gps/</text></g><g class="node" transform="translate(1000, -416.25)"><circle r="4.5" cursor="pointer" style="fill: rgb(69, 113, 24); stroke: rgb(69, 113, 24);"/><text dy=".35em" x="13" text-anchor="start" style="fill-opacity: 1;">replacement-power-cord-for-Launch-Pro</text></g><g class="node" transform="translate(1000, -401.25)"><circle r="4.5" cursor="pointer" style="fill: rgb(201, 45, 45); stroke: rgb(201, 45, 45);"/><text dy=".35em" x="13" text-anchor="start" style="fill-opacity: 1;">replacement-charger-for-Neo-iON-iON2-Excel-GPS-watch/</text></g><g class="node" transform="translate(1000, -386.25)"><circle r="4.5" cursor="pointer" style="fill: rgb(201, 45, 45); stroke: rgb(201, 45, 45);"/><text dy=".35em" x="13" text-anchor="start" style="fill-opacity: 1;">replacement-charger-for-neo-ion-ion2-excel-gps-watch</text></g><g class="node" transform="translate(1000, -371.25)"><circle r="4.5" cursor="pointer" style="fill: rgb(69, 113, 24); stroke: rgb(69, 113, 24);"/><text dy=".35em" x="13" text-anchor="start" style="fill-opacity: 1;">replacement-battery-cap-for-tour-v4-tour-v4-shift-or-hybrid/</text></g><g class="node" transform="translate(1000, -356.25)"><circle r="4.5" cursor="pointer" style="fill: rgb(69, 113, 24); stroke: rgb(69, 113, 24);"/><text dy=".35em" x="13" text-anchor="start" style="fill-opacity: 1;">replacement-charging-cable-for-ion-edge/</text></g><g class="node" transform="translate(1000, -341.25)"><circle r="4.5" cursor="pointer" style="fill: rgb(69, 113, 24); stroke: rgb(69, 113, 24);"/><text dy=".35em" x="13" text-anchor="start" style="fill-opacity: 1;">replacement-alignment-stick-for-Launch-Pro</text></g><g class="node" transform="translate(1000, -326.25)"><circle r="4.5" cursor="pointer" style="fill: rgb(69, 113, 24); stroke: rgb(69, 113, 24);"/><text dy=".35em" x="13" text-anchor="start" style="fill-opacity: 1;">carrying-case-for-hybrid-tour-v4-tour-v4-shift/</text></g><g class="node" transform="translate(1000, -296.25)"><circle r="4.5" cursor="pointer" style="fill: rgb(69, 113, 24); stroke: rgb(69, 113, 24);"/><text dy=".35em" x="13" text-anchor="start" style="fill-opacity: 1;">ion-elite</text></g><g class="node" transform="translate(1000, -281.25)"><circle r="4.5" cursor="pointer" style="fill: rgb(69, 113, 24); stroke: rgb(69, 113, 24);"/><text dy=".35em" x="13" text-anchor="start" style="fill-opacity: 1;">phantom-2-golf-gps/</text></g><g class="node" transform="translate(1000, -266.25)"><circle r="4.5" cursor="pointer" style="fill: rgb(69, 113, 24); stroke: rgb(69, 113, 24);"/><text dy=".35em" x="13" text-anchor="start" style="fill-opacity: 1;">ion-edge/</text></g><g class="node" transform="translate(1000, -251.25)"><circle r="4.5" cursor="pointer" style="fill: rgb(69, 113, 24); stroke: rgb(69, 113, 24);"/><text dy=".35em" x="13" text-anchor="start" style="fill-opacity: 1;">wingman-speaker/</text></g><g class="node" transform="translate(1000, -236.25)"><circle r="4.5" cursor="pointer" style="fill: rgb(201, 45, 45); stroke: rgb(201, 45, 45);"/><text dy=".35em" x="13" text-anchor="start" style="fill-opacity: 1;">wingman-gps-speaker/</text></g><g class="node" transform="translate(1000, -206.25)"><circle r="4.5" cursor="pointer" style="fill: rgb(69, 113, 24); stroke: rgb(69, 113, 24);"/><text dy=".35em" x="13" text-anchor="start" style="fill-opacity: 1;">wingman-case-by-jones-sports-co/</text></g><g class="node" transform="translate(1000, -191.25)"><circle r="4.5" cursor="pointer" style="fill: rgb(69, 113, 24); stroke: rgb(69, 113, 24);"/><text dy=".35em" x="13" text-anchor="start" style="fill-opacity: 1;">stick-it-magnetic-golf-towel/</text></g><g class="node" transform="translate(1000, -176.25)"><circle r="4.5" cursor="pointer" style="fill: rgb(69, 113, 24); stroke: rgb(69, 113, 24);"/><text dy=".35em" x="13" text-anchor="start" style="fill-opacity: 1;">chute-mag-water-bottle/</text></g><g class="node" transform="translate(1000, -146.25)"><circle r="4.5" cursor="pointer" style="fill: rgb(69, 113, 24); stroke: rgb(69, 113, 24);"/><text dy=".35em" x="13" text-anchor="start" style="fill-opacity: 1;">pro-x3</text></g><g class="node" transform="translate(1000, -131.25)"><circle r="4.5" cursor="pointer" style="fill: rgb(69, 113, 24); stroke: rgb(69, 113, 24);"/><text dy=".35em" x="13" text-anchor="start" style="fill-opacity: 1;">tour-v5/</text></g><g class="node" transform="translate(1000, -116.25)"><circle r="4.5" cursor="pointer" style="fill: rgb(69, 113, 24); stroke: rgb(69, 113, 24);"/><text dy=".35em" x="13" text-anchor="start" style="fill-opacity: 1;">tour-v5-shift/</text></g><g class="node" transform="translate(1000, -101.25)"><circle r="4.5" cursor="pointer" style="fill: rgb(69, 113, 24); stroke: rgb(69, 113, 24);"/><text dy=".35em" x="13" text-anchor="start" style="fill-opacity: 1;">tour-v4/</text></g><g class="node" transform="translate(1000, -86.25)"><circle r="4.5" cursor="pointer" style="fill: rgb(69, 113, 24); stroke: rgb(69, 113, 24);"/><text dy=".35em" x="13" text-anchor="start" style="fill-opacity: 1;">pro-xe/</text></g><g class="node" transform="translate(1000, -56.25)"><circle r="4.5" cursor="pointer" style="fill: rgb(69, 113, 24); stroke: rgb(69, 113, 24);"/><text dy=".35em" x="13" text-anchor="start" style="fill-opacity: 1;">launch-pro-net-package/</text></g><g class="node" transform="translate(1000, -41.25)"><circle r="4.5" cursor="pointer" style="fill: rgb(69, 113, 24); stroke: rgb(69, 113, 24);"/><text dy=".35em" x="13" text-anchor="start" style="fill-opacity: 1;">launch-pro/</text></g><g class="node" transform="translate(1000, -26.25)"><circle r="4.5" cursor="pointer" style="fill: rgb(69, 113, 24); stroke: rgb(69, 113, 24);"/><text dy=".35em" x="13" text-anchor="start" style="fill-opacity: 1;">launch-pro-full-simulator-package/</text></g><g class="node" transform="translate(1000, 3.75)"><circle r="4.5" cursor="pointer" style="fill: rgb(201, 45, 45); stroke: rgb(201, 45, 45);"/><text dy=".35em" x="13" text-anchor="start" style="fill-opacity: 1;">ion-edge-link/</text></g></g>
  </svg>